# xmcd
#
# Track frame offsets:
#	150
#	12050
#	23045
#	34787
#	45862
#	55777
#	65242
#	75647
#	85255
#	95107
#	103125
#	113265
#	124747
#	136300
#	148457
#	160965
#	171347
#	182575
#	192185
#	203935
#	215257
#	225902
#	235550
#
# Disc length: 3612 seconds
#
# Revision: 1
# Processed by: cddbd v1.4PL0 Copyright (c) Steve Scherf et al.
# Submitted via: CDmax 1.8
#
DISCID=300e1a17
DTITLE=Pee Wee King - Pee Wee King And His Golden West Cowboys, CD #6
DYEAR=1900
DGENRE=Country
TTITLE0=Plantation Boogie
TTITLE1=Jim, Johnny And Jonas
TTITLE2=Nevermind
TTITLE3=Beauty Is As Beauty Does
TTITLE4=Half A Dozen Boogie
TTITLE5=Blue Suede Shoes
TTITLE6=Tennessee Dancin' Doll
TTITLE7=Ballroom Baby
TTITLE8=Catty Town
TTITLE9=Absolutely, Positively
TTITLE10=Hoot Scoot
TTITLE11=I'll Be Walking Alone In A Crowd
TTITLE12=Sugar Beet
TTITLE13=(I Tasted) Tears On Your Lips
TTITLE14=A Catchy Tune
TTITLE15=My Darlin' (We're Not Too Young To Know)
TTITLE16=Do You Remember
TTITLE17=Congratulations Joe
TTITLE18=Prelude To A Broken Heart
TTITLE19=Do You Remember
TTITLE20=Unbreakable Heart
TTITLE21=Janie
TTITLE22=A Little Bit About Myself (A Phonobiography)
EXTD=
EXTT0=
EXTT1=
EXTT2=
EXTT3=
EXTT4=
EXTT5=
EXTT6=
EXTT7=
EXTT8=
EXTT9=
EXTT10=
EXTT11=
EXTT12=
EXTT13=
EXTT14=
EXTT15=
EXTT16=
EXTT17=
EXTT18=
EXTT19=
EXTT20=
EXTT21=
EXTT22=
PLAYORDER=
